<?xml version="1.0" encoding="utf-8"?>
<!-- Generator: Adobe Illustrator 16.0.4, SVG Export Plug-In . SVG Version: 6.00 Build 0)  -->
<!DOCTYPE svg PUBLIC "-//W3C//DTD SVG 1.1//EN" "http://www.w3.org/Graphics/SVG/1.1/DTD/svg11.dtd">
<svg version="1.1" id="Icons" xmlns="http://www.w3.org/2000/svg" xmlns:xlink="http://www.w3.org/1999/xlink" x="0px" y="0px"
	 width="512px" height="512px" viewBox="-206 -206 512 512" enable-background="new -206 -206 512 512" xml:space="preserve">
<path id="Facebook" d="M-16.236-103.163c0,12.602,0,68.84,0,68.84h-50.432v84.177h50.432V300H87.368V49.86h69.523
	c0,0,6.504-40.364,9.662-84.497c-9.054,0-78.801,0-78.801,0s0-48.974,0-57.553c0-8.602,11.303-20.175,22.461-20.175
	c11.152,0,34.668,0,56.454,0c0-11.457,0-51.06,0-87.634c-29.084,0-62.173,0-76.754,0C-18.795-200.005-16.236-115.745-16.236-103.163
	z"/>
</svg>
