<?xml version="1.0" encoding="utf-8"?>
<!-- Generator: Adobe Illustrator 16.0.4, SVG Export Plug-In . SVG Version: 6.00 Build 0)  -->
<!DOCTYPE svg PUBLIC "-//W3C//DTD SVG 1.1//EN" "http://www.w3.org/Graphics/SVG/1.1/DTD/svg11.dtd">
<svg version="1.1" id="Layer_1" xmlns="http://www.w3.org/2000/svg" xmlns:xlink="http://www.w3.org/1999/xlink" x="0px" y="0px"
	 width="512px" height="512px" viewBox="-212.333 -212.333 512 512" enable-background="new -212.333 -212.333 512 512"
	 xml:space="preserve">
<path fill="#1D1D1B" d="M288.762-73.305l-39.005-39.053c-3.129-3.118-7.215-4.837-11.616-4.82c-4.396-0.017-8.51,1.708-11.639,4.803
	L39.86,74.344L-41.833-7.503c-3.058-3.068-7.258-4.833-11.614-4.822c-4.312,0.012-8.55,1.742-11.619,4.794l-39.059,39.019
	c-6.433,6.416-6.456,16.8-0.017,23.219L28.077,187.202c2.648,2.659,6.081,4.299,9.743,4.699c0.616,0.092,1.249,0.127,1.877,0.121
	c0.04,0,0.083,0,0.123-0.006l0.017,0.012c4.413,0.011,8.608-1.731,11.731-4.826L288.75-50.083
	C295.168-56.485,295.18-66.872,288.762-73.305z"/>
<path fill="#1D1D1B" d="M274.096,1.208L73.202,202.182c-8.682,8.597-20.161,13.33-32.379,13.33l-8.92-0.017l-1.871-1.255
	c-8.187-1.949-15.757-6.167-21.737-12.173L-123.879,69.617c-8.667-8.642-13.438-20.138-13.433-32.365
	c0-12.244,4.777-23.751,13.439-32.382l39.107-39.073c8.49-8.444,20.247-13.31,32.353-13.327c12.063,0,23.86,4.917,32.339,13.439
	l60.945,61.048l129.468-129.514l-86.231-86.229c-22.826-22.823-60.168-22.823-82.997,0L-189.792,2.116
	c-22.829,22.823-22.829,60.176,0,82.997L1.117,276.019c22.829,22.819,60.171,22.819,82.997,0L275.013,85.113
	c22.826-22.82,22.826-60.168,0-82.997L274.096,1.208z"/>
</svg>
