<?xml version="1.0" encoding="utf-8"?>
<!-- Generator: Adobe Illustrator 16.0.4, SVG Export Plug-In . SVG Version: 6.00 Build 0)  -->
<!DOCTYPE svg PUBLIC "-//W3C//DTD SVG 1.1//EN" "http://www.w3.org/Graphics/SVG/1.1/DTD/svg11.dtd">
<svg version="1.1" id="Layer_1" xmlns="http://www.w3.org/2000/svg" xmlns:xlink="http://www.w3.org/1999/xlink" x="0px" y="0px"
	 width="512px" height="512px" viewBox="-227.654 -227.654 512 512" enable-background="new -227.654 -227.654 512 512"
	 xml:space="preserve">
<g>
	<path d="M268.838-12.293h-75.672v-75.664c0-5.774-4.691-10.475-10.458-10.475h-21.549c-5.801,0-10.483,4.7-10.483,10.475v75.664
		H75.003c-5.766,0-10.482,4.708-10.482,10.491v21.549c0,5.783,4.717,10.474,10.482,10.474h75.673v75.689
		c0,5.791,4.683,10.467,10.483,10.467h21.549c5.767,0,10.458-4.676,10.458-10.467V30.214h75.672c5.767,0,10.467-4.691,10.467-10.466
		V-1.802C279.304-7.593,274.604-12.293,268.838-12.293z"/>
	<path d="M14.522,54.054C-1.403,42.78-15.877,26.247-16.111,21.173c0-9.25,0.825-13.675,21.558-29.841
		c26.824-20.991,41.591-48.59,41.591-77.764c0-26.449-8.075-49.948-21.824-66.439H35.88c2.208,0,4.366-0.692,6.133-1.983
		l29.766-21.558c3.709-2.667,5.25-7.383,3.842-11.7c-1.417-4.308-5.416-7.25-9.958-7.25H-67.484c-14.566,0-29.374,2.566-43.89,7.558
		c-48.532,16.725-82.456,58.073-82.456,100.521c0,60.132,46.582,105.713,108.854,107.138c-1.225,4.766-1.833,9.458-1.833,14.058
		c0,9.267,2.35,18.041,7.183,26.523c-0.558,0-1.1,0-1.716,0c-59.356,0-112.938,29.124-133.271,72.473
		c-5.308,11.25-8,22.666-8,33.915c0,10.934,2.808,21.483,8.325,31.366c12.783,22.874,40.224,40.615,77.339,49.973
		c19.149,4.842,39.724,7.309,61.089,7.309c19.2,0,37.515-2.475,54.44-7.383c52.772-15.308,86.896-54.174,86.896-99.014
		C65.478,106.086,51.637,80.32,14.522,54.054z M-153.63,152.552c0-31.299,39.765-58.748,85.088-58.748h1.216
		c9.867,0.116,19.483,1.566,28.558,4.35c3.117,2.149,6.108,4.191,8.991,6.149c21,14.325,34.866,23.749,38.732,38.907
		c0.916,3.816,1.366,7.633,1.366,11.341c0,38.966-29.074,58.731-86.414,58.731C-119.59,213.274-153.63,186.616-153.63,152.552z
		 M-112.39-143.205c7.083-8.075,16.357-12.366,26.773-12.366l1.175,0.033c29.432,0.858,57.582,33.657,62.764,73.098
		c2.908,22.074-2,42.849-13.107,55.498c-7.108,8.108-16.258,12.383-27.083,12.383c0,0,0,0-0.017,0h-0.483
		c-28.816-0.883-57.589-34.924-62.731-74.322C-127.981-110.906-123.348-130.698-112.39-143.205z"/>
</g>
</svg>
