<?xml version="1.0" encoding="utf-8"?>
<!-- Generator: Adobe Illustrator 16.0.4, SVG Export Plug-In . SVG Version: 6.00 Build 0)  -->
<!DOCTYPE svg PUBLIC "-//W3C//DTD SVG 1.1//EN" "http://www.w3.org/Graphics/SVG/1.1/DTD/svg11.dtd">
<svg version="1.1" id="Layer_1" xmlns="http://www.w3.org/2000/svg" xmlns:xlink="http://www.w3.org/1999/xlink" x="0px" y="0px"
	 width="512px" height="512px" viewBox="-206 -206 512 512" enable-background="new -206 -206 512 512" xml:space="preserve">
<path fill="#231F20" d="M145.515-56.124H113.67c-5.855,0-10.602,4.751-10.602,10.611v31.843c0,5.857,4.746,10.606,10.602,10.606
	h31.845c5.855,0,10.622-4.749,10.622-10.606v-31.843C156.137-51.373,151.37-56.124,145.515-56.124z M50.005-3.063
	c29.311,0,53.063,23.757,53.063,53.063c0,29.307-23.753,53.063-53.063,53.063C20.699,103.063-3.056,79.307-3.056,50
	C-3.056,20.694,20.699-3.063,50.005-3.063z M134.894,49.995c0,46.896-38.007,84.898-84.889,84.898s-84.898-38.002-84.898-84.898
	c0-7.336,1.041-14.437,2.794-21.23h-24.024v116.74c0,5.855,4.747,10.603,10.624,10.603h191.005c5.865,0,10.622-4.747,10.622-10.603
	V28.765h-24.016C133.857,35.559,134.894,42.659,134.894,49.995z M50-199C-87.517-199-199-87.519-199,50
	c0,137.52,111.483,249,249,249c137.514,0,249-111.48,249-249C299-87.519,187.514-199,50-199z M156.127,187.957H-56.124
	c-17.578,0-31.837-14.26-31.837-31.85V-56.124c0-17.578,14.254-31.833,31.837-31.833h212.251c17.58,0,31.83,14.254,31.83,31.833
	v212.231C187.957,173.692,173.712,187.957,156.127,187.957z"/>
</svg>
