<?xml version="1.0" encoding="utf-8"?>
<!-- Generator: Adobe Illustrator 16.0.4, SVG Export Plug-In . SVG Version: 6.00 Build 0)  -->
<!DOCTYPE svg PUBLIC "-//W3C//DTD SVG 1.1//EN" "http://www.w3.org/Graphics/SVG/1.1/DTD/svg11.dtd">
<svg version="1.1" id="Layer_1" xmlns="http://www.w3.org/2000/svg" xmlns:xlink="http://www.w3.org/1999/xlink" x="0px" y="0px"
	 width="512px" height="512px" viewBox="244 244 512 512" enable-background="new 244 244 512 512" xml:space="preserve">
<path d="M255.163,303.802c9.775-26.491,28.517-39.786,56.334-39.786l18.321,1.844c28.182,9.37,42.229,27.148,42.229,53.248
	l-1.201,12.246c-9.831,28.153-27.538,42.258-53.289,42.258h-11.032l-13.462-1.857c-26.478-9.37-39.771-26.938-39.771-52.646v-2.444
	L255.163,303.802z"/>
<rect x="260.022" y="417.686" width="104.708" height="318.299"/>
<path d="M529.989,461.744h-1.229v-44.058h-104.68v318.299h104.68V571.926c0-31.408,4.901-50.428,14.733-56.92
	c11.842-14.273,25.024-21.45,39.771-21.45h7.317c23.684,0,39.604,14.118,47.759,42.272c1.62,11.018,2.458,20.793,2.458,29.367
	v170.789h105.908V561.508c0-77.113-25.527-125.068-76.526-143.822c-17.149-4.944-33.068-7.346-47.76-7.346
	C584.493,410.339,553.659,427.473,529.989,461.744z"/>
</svg>
