<?xml version="1.0" encoding="utf-8"?>
<!-- Generator: Adobe Illustrator 16.0.4, SVG Export Plug-In . SVG Version: 6.00 Build 0)  -->
<!DOCTYPE svg PUBLIC "-//W3C//DTD SVG 1.1//EN" "http://www.w3.org/Graphics/SVG/1.1/DTD/svg11.dtd">
<svg version="1.1" id="Layer_1" xmlns="http://www.w3.org/2000/svg" xmlns:xlink="http://www.w3.org/1999/xlink" x="0px" y="0px"
	 width="512px" height="512px" viewBox="-206 -206 512 512" enable-background="new -206 -206 512 512" xml:space="preserve">
<path fill="#231F20" d="M50-200C-88.069-200-200-88.071-200,50S-88.069,300,50,300c138.066,0,250-111.929,250-250
	S188.066-200,50-200z M72.91,126.221c-18.418,0-35.74-9.961-41.675-21.265c0,0-9.9,39.302-12,46.89
	C15.62,164.99,8.55,178.125,2.075,188.369c-1.23-0.527-20.139-7.334-20.139-7.334c-0.481-11.904-0.085-26.211,2.969-39.17
	C-11.819,128.018,6.86,48.916,6.86,48.916S1.399,38.02,1.399,21.924c0-25.278,14.661-44.16,32.905-44.16
	c15.515,0,23.015,11.66,23.015,25.61c0,15.601-9.949,38.931-15.063,60.542c-4.275,18.096,9.064,32.852,26.919,32.852
	c32.324,0,54.087-41.514,54.087-90.698c0-37.39-25.176-65.369-70.977-65.369c-51.746,0-83.984,38.589-83.984,81.694
	c0,14.861,4.38,25.339,11.245,33.455c3.159,3.726,3.599,5.229,2.454,9.502c-0.82,3.145-2.695,10.698-3.479,13.691
	c-1.13,4.316-4.636,5.869-8.535,4.272c-23.835-9.731-34.937-35.83-34.937-65.171c0-48.455,40.872-106.56,121.924-106.56
	c65.122,0,107.988,47.131,107.988,97.72C164.951,76.226,127.749,126.221,72.91,126.221z"/>
</svg>
