<?xml version="1.0" encoding="utf-8"?>
<!-- Generator: Adobe Illustrator 16.0.4, SVG Export Plug-In . SVG Version: 6.00 Build 0)  -->
<!DOCTYPE svg PUBLIC "-//W3C//DTD SVG 1.1//EN" "http://www.w3.org/Graphics/SVG/1.1/DTD/svg11.dtd">
<svg version="1.1" id="Layer_1" xmlns="http://www.w3.org/2000/svg" xmlns:xlink="http://www.w3.org/1999/xlink" x="0px" y="0px"
	 width="512px" height="512px" viewBox="244 244 512 512" enable-background="new 244 244 512 512" xml:space="preserve">
<path d="M251.489,569.173c0-3.596,1.213-6.607,3.641-9.034c2.427-2.428,5.438-3.642,9.034-3.642c2.517,0,5.304,1.079,8.359,3.237
	c22.114,19.597,47.914,29.306,77.398,29.125c10.608,0,21.171-1.349,31.688-4.045c10.517-2.697,20.181-7.013,28.99-12.945
	c-5.214-2.877-9.484-6.652-12.81-11.326c-3.326-4.675-4.989-9.889-4.989-15.642c0-4.136,0.719-7.641,2.157-10.519
	c-3.236-1.078-7.236-2.92-12.001-5.527c-4.764-2.607-9.349-5.664-13.753-9.169c-4.405-3.506-8.091-7.372-11.058-11.598
	c-2.967-4.225-4.45-8.404-4.45-12.54c0-2.877,0.899-5.438,2.697-7.686s4.046-4.271,6.742-6.067
	c-7.371-4.495-14.203-11.147-20.495-19.957c-6.293-8.81-9.439-17.619-9.439-26.429c0-5.934,2.967-9.798,8.899-11.596
	c-6.292-6.293-11.281-13.574-14.967-21.846c-3.687-8.271-5.528-16.81-5.528-25.619c0-4.135,0.854-7.866,2.562-11.191
	c1.708-3.326,5.078-4.989,10.112-4.989c3.236,0,10.787,2.427,22.653,7.282c11.866,4.854,24.676,10.293,38.43,16.315
	c13.753,6.023,26.923,12.092,39.508,18.203c12.585,6.113,21.395,10.429,26.429,12.945c4.495,2.518,8.765,5.35,12.811,8.495
	c4.045,3.146,8.045,6.428,12.001,9.844c3.595-9.169,7.82-18.743,12.675-28.722c4.854-9.978,10.247-19.552,16.182-28.721
	c5.932-9.169,12.494-17.799,19.685-25.89c7.192-8.091,15.193-14.742,24.002-19.956c1.438-1.079,3.597-1.618,6.474-1.618
	c3.235,0,5.662,0.719,7.28,2.157c2.877-1.078,6.607-2.292,11.192-3.641s8.404-2.022,11.461-2.022c5.213,0,9.079,2.427,11.596,7.281
	c5.573,0,10.652,1.393,15.237,4.181c4.585,2.786,6.877,7.326,6.877,13.618c0,5.573-2.427,10.339-7.281,14.294
	c17.26,7.73,31.598,18.967,43.014,33.71c11.418,14.742,19.553,31.103,24.406,49.082c1.079,0.359,3.146,0.54,6.203,0.54
	c8.45,0,16.36-1.483,23.732-4.45c7.371-2.966,12.495-4.45,15.372-4.45c3.236,0,6.067,1.304,8.494,3.91
	c2.428,2.607,3.642,5.529,3.642,8.765c0,4.136-1.754,8.495-5.26,13.079c-3.504,4.585-6.517,8.137-9.033,10.653
	c4.135-0.72,7.911-0.045,11.327,2.022c3.415,2.067,5.123,5.529,5.123,10.383c0,5.213-2.382,9.708-7.146,13.483
	c-4.764,3.775-10.292,7.146-16.586,10.113c-6.292,2.967-12.809,5.259-19.551,6.877s-12.001,2.608-15.777,2.967
	c-7.73,24.99-19.687,47.104-35.867,66.342c-16.181,19.236-35.059,35.282-56.633,48.139c-21.574,12.854-44.768,22.697-69.578,29.53
	c-24.811,6.832-49.532,10.247-74.162,10.247c-39.374,0-76.681-8.405-111.919-25.215c-35.236-16.811-64.452-41.396-87.645-73.759
	C252.208,573.308,251.489,570.971,251.489,569.173z"/>
</svg>
