<?xml version="1.0" encoding="utf-8"?>
<!-- Generated by IcoMoon.io -->
<!DOCTYPE svg PUBLIC "-//W3C//DTD SVG 1.1//EN" "http://www.w3.org/Graphics/SVG/1.1/DTD/svg11.dtd">
<svg version="1.1" xmlns="http://www.w3.org/2000/svg" xmlns:xlink="http://www.w3.org/1999/xlink" width="512" height="512" viewBox="0 0 512 512">
<g id="icomoon-ignore">
</g>
<path d="M256 149.333c-58.88 0-106.666 47.786-106.666 106.667s47.786 106.666 106.666 106.666 106.666-47.786 106.666-106.666-47.786-106.666-106.666-106.666zM256 42.666c-117.76 0-213.333 95.574-213.333 213.334s95.573 213.333 213.333 213.333 213.333-95.573 213.333-213.333-95.573-213.333-213.333-213.333zM256 426.666c-94.293 0-170.667-76.373-170.667-170.667s76.374-170.667 170.667-170.667 170.667 76.374 170.667 170.667-76.374 170.667-170.667 170.667z" fill="#000000"></path>
</svg>
